<svg version="1.1" viewBox="0.0 0.0 1280.0 960.0" fill="none" stroke="none" stroke-linecap="square" stroke-miterlimit="10" xmlns:xlink="http://www.w3.org/1999/xlink" xmlns="http://www.w3.org/2000/svg"><clipPath id="p.0"><path d="m0 0l1280.0 0l0 960.0l-1280.0 0l0 -960.0z" clip-rule="nonzero"/></clipPath><g clip-path="url(#p.0)"><path fill="#000000" fill-opacity="0.0" d="m0 0l1280.0 0l0 960.0l-1280.0 0z" fill-rule="evenodd"/><path fill="#000000" d="m324.27805 147.11418c5.5811462 0 9.683044 2.2411957 12.305756 6.7236023c2.6436768 4.4824066 3.9655457 10.580551 3.9655457 18.294449c0 9.042969 -1.1959534 19.62352 -3.5878906 31.741638l-50.89099 0c0.65042114 -2.5539246 2.077179 -7.062378 4.2802734 -13.525375c2.203064 -6.4629974 5.0145874 -13.2647705 8.434601 -20.40535c3.4200134 -7.140564 7.354065 -12.73053 11.802185 -16.769913c4.44812 -4.0393677 9.011627 -6.0590515 13.690521 -6.0590515zm8.151398 77.36049c-0.7553406 3.257553 -2.2660217 8.456619 -4.5320435 15.597183c-2.2660217 7.114517 -5.2244263 14.802338 -8.875244 23.063522c-3.6298218 8.235077 -7.805176 14.711121 -12.526062 19.42807c-4.69989 4.7169495 -9.536163 7.075409 -14.508789 7.075409c-10.721649 0 -16.082458 -9.069031 -16.082458 -27.207123c0 -9.6423645 1.6785278 -22.294708 5.035614 -37.95706zm-6.798065 -95.53766c-11.791687 0 -23.111298 3.6745148 -33.9588 11.023575c-10.847534 7.322983 -19.96405 16.704758 -27.34961 28.145294c-7.3855286 11.41449 -13.29187 24.236237 -17.718994 38.465256c-4.406143 14.202942 -6.6092224 28.262573 -6.6092224 42.17885c0 17.304153 4.857254 31.481033 14.571762 42.530685c9.714493 11.02356 21.537674 16.53537 35.469498 16.53537c11.351074 0 22.408386 -3.4921265 33.171997 -10.476318c10.784546 -6.984192 19.995514 -15.935974 27.632843 -26.855316c7.6582947 -10.945374 13.837402 -23.37622 18.537292 -37.29251c4.7208557 -13.91629 7.081299 -27.70227 7.081299 -41.357956c0 -18.659286 -4.720886 -33.800415 -14.162628 -45.423386c-9.420746 -11.649033 -21.642578 -17.473541 -36.665436 -17.473541z" fill-rule="evenodd"/><path stroke="#000000" stroke-width="1.0" stroke-linejoin="round" stroke-linecap="butt" d="m324.27805 147.11418c5.5811462 0 9.683044 2.2411957 12.305756 6.7236023c2.6436768 4.4824066 3.9655457 10.580551 3.9655457 18.294449c0 9.042969 -1.1959534 19.62352 -3.5878906 31.741638l-50.89099 0c0.65042114 -2.5539246 2.077179 -7.062378 4.2802734 -13.525375c2.203064 -6.4629974 5.0145874 -13.2647705 8.434601 -20.40535c3.4200134 -7.140564 7.354065 -12.73053 11.802185 -16.769913c4.44812 -4.0393677 9.011627 -6.0590515 13.690521 -6.0590515zm8.151398 77.36049c-0.7553406 3.257553 -2.2660217 8.456619 -4.5320435 15.597183c-2.2660217 7.114517 -5.2244263 14.802338 -8.875244 23.063522c-3.6298218 8.235077 -7.805176 14.711121 -12.526062 19.42807c-4.69989 4.7169495 -9.536163 7.075409 -14.508789 7.075409c-10.721649 0 -16.082458 -9.069031 -16.082458 -27.207123c0 -9.6423645 1.6785278 -22.294708 5.035614 -37.95706zm-6.798065 -95.53766c-11.791687 0 -23.111298 3.6745148 -33.9588 11.023575c-10.847534 7.322983 -19.96405 16.704758 -27.34961 28.145294c-7.3855286 11.41449 -13.29187 24.236237 -17.718994 38.465256c-4.406143 14.202942 -6.6092224 28.262573 -6.6092224 42.17885c0 17.304153 4.857254 31.481033 14.571762 42.530685c9.714493 11.02356 21.537674 16.53537 35.469498 16.53537c11.351074 0 22.408386 -3.4921265 33.171997 -10.476318c10.784546 -6.984192 19.995514 -15.935974 27.632843 -26.855316c7.6582947 -10.945374 13.837402 -23.37622 18.537292 -37.29251c4.7208557 -13.91629 7.081299 -27.70227 7.081299 -41.357956c0 -18.659286 -4.720886 -33.800415 -14.162628 -45.423386c-9.420746 -11.649033 -21.642578 -17.473541 -36.665436 -17.473541z" fill-rule="evenodd"/></g></svg>